<svg width="20" height="20" viewBox="0 0 20 20" fill="none" xmlns="http://www.w3.org/2000/svg">
<path d="M2 18.0764L3.13003 13.9481C2.43272 12.7397 2.06631 11.3698 2.06698 9.96517C2.06899 5.57364 5.64264 2 10.0335 2C12.1643 2.00067 14.1644 2.83061 15.6689 4.33643C17.1727 5.84225 18.0007 7.84376 18 9.97254C17.998 14.3647 14.4243 17.9384 10.0335 17.9384C8.70049 17.9377 7.38692 17.6034 6.22339 16.9684L2 18.0764ZM6.41899 15.5262C7.54166 16.1927 8.61341 16.592 10.0308 16.5926C13.6801 16.5926 16.6529 13.6225 16.6549 9.9712C16.6563 6.31248 13.6976 3.3464 10.0362 3.34506C6.38416 3.34506 3.41338 6.31516 3.41204 9.96584C3.41137 11.4562 3.84811 12.5722 4.5816 13.7398L3.91242 16.1834L6.41899 15.5262ZM14.0466 11.8662C13.997 11.7831 13.8644 11.7336 13.6647 11.6338C13.4658 11.534 12.4871 11.0523 12.3043 10.986C12.1221 10.9197 11.9894 10.8862 11.8561 11.0858C11.7235 11.2848 11.3417 11.7336 11.2258 11.8662C11.1099 11.9988 10.9934 12.0156 10.7944 11.9158C10.5955 11.816 9.95378 11.6063 9.1935 10.9277C8.60203 10.3999 8.20213 9.74814 8.08624 9.54852C7.97036 9.34958 8.07418 9.24173 8.17332 9.14259C8.26308 9.0535 8.37227 8.91016 8.47207 8.7936C8.57322 8.67839 8.60604 8.59533 8.67303 8.46203C8.73934 8.3294 8.70652 8.21284 8.65628 8.11304C8.60604 8.0139 8.20815 7.03391 8.0427 6.63535C7.8806 6.24751 7.71649 6.29976 7.59457 6.29373L7.21276 6.28703C7.08013 6.28703 6.86444 6.3366 6.68224 6.53621C6.50004 6.73583 5.9856 7.21678 5.9856 8.19677C5.9856 9.17676 6.69899 10.1233 6.79812 10.2559C6.89793 10.3885 8.20146 12.3994 10.1983 13.2615C10.6732 13.4665 11.0443 13.589 11.333 13.6808C11.8099 13.8322 12.244 13.8108 12.587 13.7599C12.9694 13.7029 13.7645 13.2782 13.9307 12.8134C14.0968 12.3478 14.0968 11.9493 14.0466 11.8662Z" fill="white"/>
</svg>
