<svg width="16" height="16" viewBox="0 0 16 16" fill="none" xmlns="http://www.w3.org/2000/svg">
<rect width="16" height="16" rx="8" fill="#F03C37"/>
<path d="M11.7729 10.9771C11.8786 11.0827 11.938 11.226 11.938 11.3755C11.938 11.5249 11.8786 11.6683 11.7729 11.7739C11.6673 11.8796 11.524 11.939 11.3745 11.939C11.2251 11.939 11.0817 11.8796 10.9761 11.7739L7.99998 8.7969L5.02295 11.773C4.91728 11.8787 4.77395 11.938 4.62451 11.938C4.47507 11.938 4.33175 11.8787 4.22607 11.773C4.1204 11.6673 4.06104 11.524 4.06104 11.3746C4.06104 11.2251 4.1204 11.0818 4.22607 10.9761L7.2031 8.00002L4.22701 5.02299C4.12134 4.91732 4.06197 4.774 4.06197 4.62455C4.06197 4.47511 4.12134 4.33179 4.22701 4.22611C4.33268 4.12044 4.47601 4.06108 4.62545 4.06108C4.77489 4.06108 4.91821 4.12044 5.02389 4.22611L7.99998 7.20315L10.977 4.22565C11.0827 4.11997 11.226 4.06061 11.3754 4.06061C11.5249 4.06061 11.6682 4.11997 11.7739 4.22565C11.8796 4.33132 11.9389 4.47464 11.9389 4.62408C11.9389 4.77353 11.8796 4.91685 11.7739 5.02252L8.79685 8.00002L11.7729 10.9771Z" fill="white"/>
</svg>
