<svg width="80" height="54" viewBox="0 0 80 54" fill="none" xmlns="http://www.w3.org/2000/svg">
<path d="M64.3382 0H38.2769V27.1572H64.3382V0Z" fill="#C78B5B"/>
<path d="M71.556 0H45.7275V27.1572H71.556V0Z" fill="#E5BE84"/>
<path d="M60.6905 0H56.5771V6.98376H60.6905V0Z" fill="#EAD1B7"/>
<path d="M60.6905 20.1735H56.5771V27.1572H60.6905V20.1735Z" fill="#EAD1B7"/>
<path d="M69.7397 21.5802H63.0342V25.8995H69.7397V21.5802Z" fill="#F7EEE5"/>
<path d="M64.0431 22.1925H63.3291V25.3038H64.0431V22.1925Z" fill="#444248"/>
<path d="M64.7259 22.1925H64.4775V25.3038H64.7259V22.1925Z" fill="#444248"/>
<path d="M66.3408 22.1925H65.751V25.3038H66.3408V22.1925Z" fill="#444248"/>
<path d="M65.378 22.1925H65.021V25.3038H65.378V22.1925Z" fill="#444248"/>
<path d="M67.0233 22.1925H66.7749V25.3038H67.0233V22.1925Z" fill="#444248"/>
<path d="M68.3894 22.1925H67.9082V25.3038H68.3894V22.1925Z" fill="#444248"/>
<path d="M68.7929 22.1925H68.5601V25.3038H68.7929V22.1925Z" fill="#444248"/>
<path d="M67.6907 22.1925H67.3647V25.3038H67.6907V22.1925Z" fill="#444248"/>
<path d="M69.4137 22.1925H69.0566V25.3038H69.4137V22.1925Z" fill="#444248"/>
<path d="M72.7825 26.8428H46.7212V54H72.7825V26.8428Z" fill="#C78B5B"/>
<path d="M80.0004 26.8428H54.1719V54H80.0004V26.8428Z" fill="#E5BE84"/>
<path d="M70.5628 26.8428H63.6245V33.8265H70.5628V26.8428Z" fill="#EAD1B7"/>
<path d="M70.5628 46.9998H63.6245V53.9835H70.5628V46.9998Z" fill="#EAD1B7"/>
<path d="M62.119 48.4229H55.4136V52.7422H62.119V48.4229Z" fill="#F7EEE5"/>
<path d="M56.4381 49.0352H55.7241V52.1464H56.4381V49.0352Z" fill="#444248"/>
<path d="M57.1053 49.0352H56.8569V52.1464H57.1053V49.0352Z" fill="#444248"/>
<path d="M58.7197 49.0352H58.1299V52.1464H58.7197V49.0352Z" fill="#444248"/>
<path d="M57.7574 49.0352H57.4004V52.1464H57.7574V49.0352Z" fill="#444248"/>
<path d="M59.4026 49.0352H59.1543V52.1464H59.4026V49.0352Z" fill="#444248"/>
<path d="M60.7688 49.0352H60.2876V52.1464H60.7688V49.0352Z" fill="#444248"/>
<path d="M61.1723 49.0352H60.9395V52.1464H61.1723V49.0352Z" fill="#444248"/>
<path d="M60.0701 49.0352H59.7441V52.1464H60.0701V49.0352Z" fill="#444248"/>
<path d="M61.793 49.0352H61.436V52.1464H61.793V49.0352Z" fill="#444248"/>
<path d="M40.5588 11.7334H0V53.9835H40.5588V11.7334Z" fill="#C78B5B"/>
<path d="M51.7814 11.7334H11.5796V53.9835H51.7814V11.7334Z" fill="#E5BE84"/>
<path d="M37.0817 11.7334H26.2939V22.6062H37.0817V11.7334Z" fill="#EAD1B7"/>
<path d="M37.0817 43.1106H26.2939V53.9834H37.0817V43.1106Z" fill="#EAD1B7"/>
<path d="M23.9346 45.3282H13.5039V52.0472H23.9346V45.3282Z" fill="#F7EEE5"/>
<path d="M15.0874 46.2716H13.9854V51.104H15.0874V46.2716Z" fill="#444248"/>
<path d="M16.1586 46.2716H15.7705V51.104H16.1586V46.2716Z" fill="#444248"/>
<path d="M18.642 46.2716H17.7417V51.104H18.642V46.2716Z" fill="#444248"/>
<path d="M17.1672 46.2716H16.6084V51.104H17.1672V46.2716Z" fill="#444248"/>
<path d="M19.6972 46.2716H19.3247V51.104H19.6972V46.2716Z" fill="#444248"/>
<path d="M21.8549 46.2716H21.1099V51.104H21.8549V46.2716Z" fill="#444248"/>
<path d="M22.476 46.2716H22.1035V51.104H22.476V46.2716Z" fill="#444248"/>
<path d="M20.7686 46.2716H20.2563V51.104H20.7686V46.2716Z" fill="#444248"/>
<path d="M23.4382 46.2716H22.8794V51.104H23.4382V46.2716Z" fill="#444248"/>
</svg>
